# xmcd
# Copyright (C) 1995-1998 Ti Kan
#
# Track frame offsets:
#       150
#       20139
#       36681
#       50257
#       73378
#       87168
#       105696
#       126637
#       145377
#       156172
#       188885
#       207399
#       226742
#       236987
#       256077
#       268944
#       284946
#       296639
#       305869
#
# Disc length: 4268 seconds
#
# Revision: 18
# Processed by: cddbd v1.5.2PL0 Copyright (c) Steve Scherf et al.
# Submitted via: CD-Import v1.0
#
DISCID=4110aa13
DTITLE=Dean Martin - Absoluteley The Best Of The 50s
DYEAR=1900
DGENRE=
TTITLE0=Air
TTITLE1=Always On My Mind 
TTITLE2=The Best Of All Possible Worlds
TTITLE3=Bufalo Bill
TTITLE4=Ein Bisschen Frieden
TTITLE5=Griechischer Wein
TTITLE6=Hollywood
TTITLE7=A Horse With No Name
TTITLE8=I Want You So Hard (Boy's Bad News)
TTITLE9=It Don't Mean A Thing
TTITLE10=Lift Me ( Feat. Madrugada)
TTITLE11=Manchmal Haben Frauen...
TTITLE12=Memphis, Tennessee
TTITLE13=Paff, Der Zauberdrachen
TTITLE14=Qu'ech Que Ch'est Qu'cha
TTITLE15=Robert De Niro's Waiting
TTITLE16=Rock And Roll Music 
TTITLE17=Summertime Blues
TTITLE18=That's Amore
EXTD=
EXTT0=
EXTT1=
EXTT2=
EXTT3=
EXTT4=
EXTT5=
EXTT6=
EXTT7=
EXTT8=
EXTT9=
EXTT10=
EXTT11=
EXTT12=
EXTT13=
EXTT14=
EXTT15=
EXTT16=
EXTT17=
EXTT18=
PLAYORDER=
